<svg width="128" height="128" viewBox="0 0 128 128" fill="none" xmlns="http://www.w3.org/2000/svg">
<rect width="81" height="102" transform="translate(24 15)" fill="white"/>
<path d="M100.07 0H27.5733C19.523 0 13 6.52591 13 14.5733V113.427C13 121.474 19.523 128 27.5733 128H100.064C108.114 128 114.637 121.474 114.637 113.427V14.5733C114.643 6.52591 108.111 0 100.07 0ZM26.6581 49.1265C26.6581 45.7105 29.4299 42.9445 32.8401 42.9445H35.0027C32.6972 40.3971 31.2807 37.0278 31.2807 33.3145C31.2807 25.3779 37.7192 18.9423 45.6558 18.9423C53.5982 18.9423 60.0309 25.375 60.0309 33.3174C60.0309 37.0249 58.6144 40.3971 56.303 42.9445H58.3695C61.7855 42.9445 64.5515 45.7105 64.5515 49.1265V59.5552C64.5515 62.8254 62.0012 65.4719 58.7951 65.6934H32.4145C29.2084 65.4719 26.6581 62.8254 26.6581 59.5552V49.1265ZM95.1525 109.055H32.4874C29.2696 109.055 26.6581 106.443 26.6581 103.225C26.6581 100.008 29.2696 97.3961 32.4874 97.3961H95.1525C98.3703 97.3961 100.982 100.008 100.982 103.225C100.982 106.443 98.3703 109.055 95.1525 109.055ZM95.1525 87.1948H32.4874C29.2696 87.1948 26.6581 84.5833 26.6581 81.3655C26.6581 78.1477 29.2696 75.5362 32.4874 75.5362H95.1525C98.3703 75.5362 100.982 78.1477 100.982 81.3655C100.982 84.5833 98.3703 87.1948 95.1525 87.1948ZM95.1525 65.3349H76.2072C72.9894 65.3349 70.3779 62.7234 70.3779 59.5056C70.3779 56.2878 72.9894 53.6763 76.2072 53.6763H95.1525C98.3703 53.6763 100.982 56.2878 100.982 59.5056C100.982 62.7234 98.3703 65.3349 95.1525 65.3349Z" fill="#10821F"/>
</svg>
