<svg width="128" height="128" viewBox="0 0 128 128" fill="none" xmlns="http://www.w3.org/2000/svg">
<path d="M114 71C114 43.3858 91.6142 21 64 21C36.3858 21 14 43.3858 14 71C14 98.6142 36.3858 121 64 121C91.6142 121 114 98.6142 114 71Z" fill="black"/>
<path fill-rule="evenodd" clip-rule="evenodd" d="M64.0463 9C33.0542 9 8 34.2389 8 65.4628C8 90.4217 24.0531 111.549 46.3229 119.027C49.1072 119.589 50.1271 117.812 50.1271 116.317C50.1271 115.008 50.0353 110.521 50.0353 105.846C34.4446 109.212 31.198 99.1154 31.198 99.1154C28.6924 92.5716 24.98 90.8898 24.98 90.8898C19.8772 87.4309 25.3517 87.4309 25.3517 87.4309C31.0121 87.8049 33.9823 93.2267 33.9823 93.2267C38.9922 101.826 47.0652 99.3964 50.313 97.9005C50.7764 94.2546 52.2621 91.7307 53.8395 90.3288C41.4048 89.0198 28.3219 84.159 28.3219 62.4708C28.3219 56.3011 30.5475 51.2533 34.074 47.3275C33.5176 45.9256 31.5685 40.1287 34.6316 32.37C34.6316 32.37 39.3639 30.8741 50.0342 38.1658C54.6025 36.9299 59.3138 36.3011 64.0463 36.2958C68.7786 36.2958 73.6027 36.9509 78.0574 38.1658C88.7288 30.8741 93.4611 32.37 93.4611 32.37C96.5242 40.1287 94.5739 45.9256 94.0175 47.3275C97.637 51.2533 99.7708 56.3011 99.7708 62.4708C99.7708 84.159 86.6879 88.9257 74.1602 90.3288C76.2023 92.1047 77.9644 95.4695 77.9644 100.798C77.9644 108.37 77.8726 114.447 77.8726 116.316C77.8726 117.812 78.8937 119.589 81.6768 119.028C103.947 111.548 120 90.4217 120 65.4628C120.092 34.2389 94.9456 9 64.0463 9Z" fill="white"/>
</svg>
