<svg width="128" height="128" viewBox="0 0 128 128" fill="none" xmlns="http://www.w3.org/2000/svg">
<rect width="128" height="128" fill="#2867B2"/>
<path d="M22.4433 105.551H39.5537V49.3309H22.4433V105.551Z" fill="white"/>
<path d="M51.7752 50.0642H67.6637V58.0477C69.9537 53.4567 75.8227 49.3309 84.6392 49.3309C101.539 49.3309 105.551 58.4682 105.551 75.2332V106.284H88.4402V79.0512C88.4402 69.5042 86.1502 64.1192 80.3252 64.1192C72.2467 64.1192 68.8857 69.9247 68.8857 79.0512V106.284H51.7752V50.0642Z" fill="white"/>
<path d="M41.998 30.9984C41.998 32.4429 41.7134 33.8733 41.1607 35.2078C40.6079 36.5423 39.7977 37.7549 38.7763 38.7763C37.7549 39.7976 36.5423 40.6079 35.2078 41.1607C33.8733 41.7134 32.4429 41.998 30.9985 41.998C29.554 41.998 28.1237 41.7134 26.7892 41.1607C25.4546 40.6079 24.2421 39.7976 23.2206 38.7763C22.1993 37.7549 21.3891 36.5423 20.8363 35.2078C20.2835 33.8733 19.999 32.4429 19.999 30.9984C19.999 28.0812 21.1579 25.2835 23.2206 23.2206C25.2835 21.1579 28.0812 19.999 30.9985 19.999C33.9157 19.999 36.7135 21.1579 38.7763 23.2206C40.8391 25.2835 41.998 28.0812 41.998 30.9984Z" fill="white"/>
</svg>
